Coordinates
version=1
nRows=8
nColumns=63
inDegrees=yes

Units are S.I. units (second, meters, Newtons, ...)
If the header above contains a line with 'inDegrees', this indicates whether rotational values are in degrees (yes) or radians (no).

endheader
time	pelvis_tilt	pelvis_list	pelvis_rotation	pelvis_tx	pelvis_ty	pelvis_tz	hip_flexion_r	hip_adduction_r	hip_rotation_r	knee_angle_r	knee_angle_r_beta	ankle_angle_r	subtalar_angle_r	mtp_angle_r	hip_flexion_l	hip_adduction_l	hip_rotation_l	knee_angle_l	knee_angle_l_beta	ankle_angle_l	subtalar_angle_l	mtp_angle_l	L5_S1_Flex_Ext	L5_S1_Lat_Bending	L5_S1_axial_rotation	L4_L5_Flex_Ext	L4_L5_Lat_Bending	L4_L5_axial_rotation	L3_L4_Flex_Ext	L3_L4_Lat_Bending	L3_L4_axial_rotation	L2_L3_Flex_Ext	L2_L3_Lat_Bending	L2_L3_axial_rotation	L1_L2_Flex_Ext	L1_L2_Lat_Bending	L1_L2_axial_rotation	L1_T12_Flex_Ext	L1_T12_Lat_Bending	L1_T12_axial_rotation	Abs_r3	Abs_r2	Abs_r1	Abs_t1	Abs_t2	neck_flexion	neck_bending	neck_rotation	arm_flex_r	arm_add_r	arm_rot_r	elbow_flex_r	pro_sup_r	wrist_flex_r	wrist_dev_r	arm_flex_l	arm_add_l	arm_rot_l	elbow_flex_l	pro_sup_l	wrist_flex_l	wrist_dev_l
2.084746	-0.835201	0.154445	87.552959	0.349774	0.970020	0.562332	-3.350128	-0.142429	3.474411	1.823343	0.031823	18.993153	-7.289319	0.000000	-2.087128	-2.241616	13.234122	0.701688	0.012247	22.590314	-1.722028	0.000000	-0.133111	-1.134225	-0.867589	-0.247201	-1.508520	-0.921813	-0.218689	-2.757755	-0.921813	-0.152133	-2.757755	-0.759140	-0.123607	-2.312912	-0.704916	-0.076060	-1.756915	-0.650692	-0.950801	-12.830583	-4.825269	0.000000	0.000000	27.995755	8.013269	-14.609657	73.291871	-25.481380	1.682638	139.808580	77.736679	8.829557	18.674607	19.855465	-9.461004	158.481165	4.986443	4.465360	-0.340887	-6.552559
2.101695	-0.916412	0.272973	87.302628	0.350360	0.970310	0.561745	-3.484454	-0.252910	4.547626	1.791910	0.031275	19.049843	-8.015044	0.000000	-2.285574	-2.150639	13.145009	0.682826	0.011918	22.525871	-1.843438	0.000000	-0.132173	-1.153973	-0.892440	-0.245458	-1.534784	-0.948217	-0.217146	-2.805770	-0.948217	-0.151060	-2.805770	-0.780885	-0.122735	-2.353182	-0.725107	-0.075523	-1.787504	-0.669330	-0.944095	-13.053976	-4.963482	0.000000	0.000000	27.955421	8.179503	-14.770787	73.029725	-25.086728	1.555753	139.913522	77.620641	8.833904	18.403149	19.597465	-9.923818	156.679507	4.968098	4.719380	-0.849377	-5.868874
2.118644	-1.032665	0.413953	87.016419	0.351175	0.970696	0.560792	-3.642459	-0.386802	5.606582	1.764544	0.030797	19.202862	-8.681120	0.000000	-2.541692	-2.033621	12.714601	0.670024	0.011694	22.449066	-1.590778	0.000000	-0.130576	-1.181819	-0.905101	-0.242493	-1.571820	-0.961670	-0.214524	-2.873475	-0.961670	-0.149236	-2.873475	-0.791963	-0.121253	-2.409966	-0.735394	-0.074611	-1.830638	-0.678826	-0.932693	-13.368975	-5.033899	0.000000	0.000000	27.899640	8.177216	-15.010101	72.696595	-24.815946	1.264068	140.168182	77.181929	8.828767	18.119698	19.269699	-10.429779	155.004762	4.918329	5.127362	-1.644165	-4.988338
2.135593	-1.163764	0.568240	86.719721	0.352140	0.971162	0.559519	-3.820467	-0.520888	6.668291	1.731785	0.030225	19.407391	-9.372885	0.000000	-2.841525	-1.911723	12.045434	0.661261	0.011541	22.354683	-1.049843	0.000000	-0.127807	-1.214645	-0.907551	-0.237350	-1.615478	-0.964273	-0.209974	-2.953289	-0.964273	-0.146070	-2.953289	-0.794107	-0.118681	-2.476905	-0.737385	-0.073029	-1.881486	-0.680663	-0.912912	-13.740311	-5.047525	0.000000	0.000000	27.833289	7.993153	-15.325944	72.300722	-24.684062	0.847811	140.524304	76.191501	8.913996	17.861953	18.887144	-10.947269	153.095898	4.840007	6.234061	-2.558914	-3.932976
2.152542	-1.287931	0.736704	86.444643	0.353154	0.971691	0.557985	-4.023567	-0.633607	7.674364	1.691129	0.029516	19.645188	-10.068412	0.000000	-3.177285	-1.806389	11.182321	0.657780	0.011480	22.263265	-0.227466	0.000000	-0.124848	-1.248564	-0.903328	-0.231854	-1.660590	-0.959786	-0.205112	-3.035758	-0.959786	-0.142688	-3.035758	-0.790412	-0.115933	-2.546072	-0.733954	-0.071338	-1.934026	-0.677496	-0.891773	-14.124005	-5.024041	0.000000	0.000000	27.761610	7.647485	-15.660366	71.868674	-24.703094	0.352787	140.946987	74.728826	9.110777	17.653119	18.483578	-11.431132	151.090034	4.723541	8.101641	-3.458872	-2.793556
2.169492	-1.389062	0.915821	86.211985	0.354166	0.972261	0.556274	-4.247953	-0.707739	8.614723	1.644060	0.028694	19.881024	-10.801371	0.000000	-3.540596	-1.731997	10.435048	0.651391	0.011369	22.127587	0.492212	0.000000	-0.122057	-1.281048	-0.895093	-0.226672	-1.703794	-0.951036	-0.200528	-3.114740	-0.951036	-0.139499	-3.114740	-0.783206	-0.113342	-2.612313	-0.727263	-0.069743	-1.984343	-0.671320	-0.871842	-14.491472	-4.978237	0.000000	0.000000	27.685108	7.153993	-15.999949	71.396296	-24.875524	-0.179731	141.426123	73.285823	9.304470	17.374225	18.079296	-11.823799	150.200269	4.478652	9.678881	-4.218182	-1.651263
2.186441	-1.450981	1.097489	86.042961	0.355079	0.972832	0.554501	-4.479501	-0.730657	9.402597	1.601543	0.027952	20.109084	-11.475774	0.000000	-3.907494	-1.706126	9.593536	0.651546	0.011372	22.024711	1.455169	0.000000	-0.119855	-1.309059	-0.890709	-0.222583	-1.741049	-0.946378	-0.196910	-3.182846	-0.946378	-0.136983	-3.182846	-0.779370	-0.111298	-2.669433	-0.723701	-0.068485	-2.027733	-0.668031	-0.856114	-14.808339	-4.953854	0.000000	0.000000	27.603172	6.562050	-16.304524	70.936035	-25.168093	-0.702108	141.900079	71.631812	9.589020	17.172348	17.676099	-12.130548	149.614544	4.174403	11.444852	-4.880383	-0.643429
2.203390	-1.469806	1.281649	85.966514	0.355832	0.973382	0.552768	-4.718673	-0.698529	9.885971	1.562640	0.027273	20.351553	-11.930320	0.000000	-4.268983	-1.730400	8.928060	0.654721	0.011427	21.894427	2.330508	0.000000	-0.119897	-1.331037	-0.903204	-0.222660	-1.770280	-0.959655	-0.196978	-3.236285	-0.959655	-0.137030	-3.236285	-0.790304	-0.111336	-2.714252	-0.733854	-0.068509	-2.061777	-0.677403	-0.856411	-15.056962	-5.023352	0.000000	0.000000	27.521893	5.955579	-16.474040	70.523979	-25.506669	-1.153094	142.337304	70.203804	9.863237	17.057058	17.255702	-12.345896	149.543852	3.785559	12.938715	-5.431429	0.187811
